<svg xmlns="http://www.w3.org/2000/svg" aria-hidden="true" style="position:absolute;width:0;height:0;overflow:hidden">
  <defs>
    <symbol id="icon-favicon-group-project" viewBox="0 0 32 32">
      <path fill="#1b414b" d="M8 0h16a8 8 0 0 1 8 8v16a8 8 0 0 1-8 8H8a8 8 0 0 1-8-8V8a8 8 0 0 1 8-8z" style="fill:var(--color1, #1b414b)"/>
      <path fill="#fbfbfb" d="M7.4 10.8H9l2.7 4.6 2.7-4.6h1.8L12.6 17v4H11v-4l-3.7-6.2zM17 21h-1.6l3.7-10.2h1.7L24.6 21H23L20 12.7 17 21zm.3-4h5.3v1.3h-5.3V17z" style="fill:var(--color2, #fbfbfb)"/>
    </symbol>
  </defs>
</svg>
